{"title":"Supreme.Champion.2010.BRRip.XviD.Ac3.Feel-Free","uid":6917295,"size":1121123869,"categoryP":"video","categoryS":"movies","magnet":"?xt=urn:btih:51b3b6276357ee370c4b367641a96086a131c3a5&amp;dn=Supreme.Champion.2010.BRRip.XviD.Ac3.Feel-Free&amp;tr=udp%3A%2F%2Ftracker.openbittorrent.com%3A80&amp;tr=udp%3A%2F%2Fopen.demonii.com%3A1337&amp;tr=udp%3A%2F%2Ftracker.coppersurfer.tk%3A6969&amp;tr=udp%3A%2F%2Fexodus.desync.com%3A6969","seeders":1,"leechers":0,"uploader":"rcbcsk","files":8,"time":1325032217,"description":"Genre: Action\nLanguage:English\nIMDb:http://www.imdb.com/title/tt1283546/\nSource:.1080p.BluRay.x264.BRMP Thanks!\n\nFormat : AVI\nFormat/Info : Audio Video Interleave\nFile size : 1.04 GiB\nDuration : 1h 26mn\nOverall bit rate : 1 733 Kbps\n\nVideo\nID : 0\nFormat : MPEG-4 Visual\nFormat profile : Advanced Simple@L5\nFormat settings, BVOP : Yes\nFormat settings, QPel : No\nFormat settings, GMC : No warppoints\nFormat settings, Matrix : Default (H.263)\nCodec ID : XVID\nCodec ID/Hint : XviD\nDuration : 1h 26mn\nBit rate : 1 275 Kbps\nWidth : 640 pixels\nHeight : 360 pixels\nDisplay aspect ratio : 16:9\nFrame rate : 23.976 fps\nColor space : YUV\nChroma subsampling : 4:2:0\nBit depth : 8 bits\nScan type : Progressive\nBits/(Pixel*Frame) : 0.231\nStream size : 786 MiB (74%)\nWriting library : XviD 1.2.1 (UTC 2008-12-04)\n\nAudio\nID : 1\nFormat : AC-3\nFormat/Info : Audio Coding 3\nMode extension : CM (complete main)\nCodec ID : 2000\nDuration : 1h 26mn\nBit rate mode : Constant\nBit rate : 448 Kbps\nChannel(s) : 6 channels\nChannel positions : Front: L C R, Side: L R, LFE\nSampling rate : 48.0 KHz\nBit depth : 16 bits\nStream size : 276 MiB (26%)\nAlignment : Aligned on interleaves\nInterleave, duration : 42 ms (1.00 video frame)\nInterleave, preload duration : 512 ms\n\nScreen Shots\n &lt;a href=&quot;\nhttp://img339.imageshack.us/img339/7290/vlcsnap00002vb.png&quot; rel=&quot;nofollow&quot; target=&quot;_NEW&quot;&gt;\nhttp://img339.imageshack.us/img339/7290/vlcsnap00002vb.png&lt;/a&gt;\n &lt;a href=&quot;\nhttp://img850.imageshack.us/img850/6640/vlcsnap00003r.png&quot; rel=&quot;nofollow&quot; target=&quot;_NEW&quot;&gt;\nhttp://img850.imageshack.us/img850/6640/vlcsnap00003r.png&lt;/a&gt;\n &lt;a href=&quot;\nhttp://img834.imageshack.us/img834/541/vlcsnap00004vt.png&quot; rel=&quot;nofollow&quot; target=&quot;_NEW&quot;&gt;\nhttp://img834.imageshack.us/img834/541/vlcsnap00004vt.png&lt;/a&gt;\n &lt;a href=&quot;\nhttp://img812.imageshack.us/img812/6936/vlcsnap00001ql.png&quot; rel=&quot;nofollow&quot; target=&quot;_NEW&quot;&gt;\nhttp://img812.imageshack.us/img812/6936/vlcsnap00001ql.png&lt;/a&gt;","torrent":{"xt":"urn:btih:51b3b6276357ee370c4b367641a96086a131c3a5","amp;dn":"Supreme.Champion.2010.BRRip.XviD.Ac3.Feel-Free","amp;tr":["udp%3A%2F%2Ftracker.openbittorrent.com%3A80","udp%3A%2F%2Fopen.demonii.com%3A1337","udp%3A%2F%2Ftracker.coppersurfer.tk%3A6969","udp%3A%2F%2Fexodus.desync.com%3A6969"],"infoHash":"51b3b6276357ee370c4b367641a96086a131c3a5","infoHashBuffer":{"type":"Buffer","data":[81,179,182,39,99,87,238,55,12,75,54,118,65,169,96,134,161,49,195,165]},"announce":[],"urlList":[]}}